<svg xmlns="http://www.w3.org/2000/svg" xmlns:xlink="http://www.w3.org/1999/xlink" width="800" zoomAndPan="magnify" viewBox="0 0 600 599.999999" height="800" preserveAspectRatio="xMidYMid meet" version="1.0"><defs><clipPath id="f0c33d2dc9"><path d="M 176.320312 291.578125 L 192.820312 291.578125 L 192.820312 308.078125 L 176.320312 308.078125 Z M 176.320312 291.578125 " clip-rule="nonzero"/></clipPath></defs><path fill="#000000" d="M 145.203125 323.453125 L 408.582031 586.832031 C 421.441406 599.691406 442.289062 599.691406 455.144531 586.832031 C 468 573.976562 468 553.476562 455.144531 540.621094 L 214.695312 300.171875 L 455.144531 59.726562 C 468 46.871094 468 26.023438 455.144531 13.167969 C 442.289062 0.308594 421.441406 0.308594 408.582031 13.167969 L 144.855469 276.894531 C 132 289.75 132 310.597656 145.203125 323.453125 Z M 145.203125 323.453125 " fill-opacity="1" fill-rule="evenodd"/><g clip-path="url(#f0c33d2dc9)"><path fill="#000000" d="M 184.570312 291.578125 C 180.011719 291.578125 176.320312 295.273438 176.320312 299.828125 C 176.320312 304.386719 180.011719 308.078125 184.570312 308.078125 C 189.125 308.078125 192.820312 304.386719 192.820312 299.828125 C 192.820312 295.273438 189.125 291.578125 184.570312 291.578125 Z M 187.867188 300.65625 L 183.261719 300.65625 L 184.570312 301.964844 C 184.890625 302.285156 184.890625 302.808594 184.570312 303.128906 C 184.246094 303.453125 183.722656 303.453125 183.402344 303.128906 L 180.6875 300.414062 C 180.363281 300.089844 180.363281 299.566406 180.6875 299.246094 L 183.402344 296.53125 C 183.722656 296.207031 184.246094 296.207031 184.570312 296.53125 C 184.890625 296.851562 184.890625 297.375 184.570312 297.695312 L 183.261719 299.003906 L 187.867188 299.003906 C 188.324219 299.003906 188.695312 299.375 188.695312 299.828125 C 188.695312 300.285156 188.324219 300.65625 187.867188 300.65625 Z M 187.867188 300.65625 " fill-opacity="1" fill-rule="nonzero"/></g></svg>