<svg xmlns="http://www.w3.org/2000/svg" xmlns:xlink="http://www.w3.org/1999/xlink" width="800" zoomAndPan="magnify" viewBox="0 0 600 599.999999" height="800" preserveAspectRatio="xMidYMid meet" version="1.0"><defs><clipPath id="91c3b95b7c"><path d="M 180 307 L 420 307 L 420 408.75 L 180 408.75 Z M 180 307 " clip-rule="nonzero"/></clipPath><clipPath id="2098c1763c"><path d="M 326 191.25 L 375 191.25 L 375 245 L 326 245 Z M 326 191.25 " clip-rule="nonzero"/></clipPath></defs><g clip-path="url(#91c3b95b7c)"><path fill="#323232" d="M 393.589844 408.75 L 206.410156 408.75 C 205.554688 408.75 204.699219 408.707031 203.84375 408.621094 C 202.988281 408.535156 202.144531 408.410156 201.300781 408.242188 C 200.460938 408.074219 199.628906 407.863281 198.808594 407.613281 C 197.988281 407.363281 197.179688 407.074219 196.386719 406.746094 C 195.597656 406.417969 194.820312 406.050781 194.066406 405.644531 C 193.308594 405.242188 192.574219 404.800781 191.859375 404.324219 C 191.148438 403.847656 190.460938 403.335938 189.796875 402.792969 C 189.132812 402.246094 188.5 401.671875 187.890625 401.066406 C 187.285156 400.457031 186.710938 399.824219 186.164062 399.160156 C 185.621094 398.496094 185.109375 397.808594 184.632812 397.097656 C 184.15625 396.382812 183.714844 395.648438 183.3125 394.890625 C 182.90625 394.136719 182.539062 393.359375 182.210938 392.566406 C 181.882812 391.777344 181.59375 390.96875 181.34375 390.148438 C 181.09375 389.328125 180.882812 388.496094 180.714844 387.65625 C 180.546875 386.8125 180.421875 385.964844 180.335938 385.113281 C 180.25 384.257812 180.207031 383.402344 180.207031 382.546875 L 180.207031 375.058594 C 180.207031 374.5625 180.300781 374.085938 180.492188 373.625 C 180.679688 373.167969 180.953125 372.761719 181.304688 372.410156 C 181.652344 372.058594 182.058594 371.789062 182.515625 371.597656 C 182.976562 371.410156 183.453125 371.316406 183.949219 371.316406 C 184.445312 371.316406 184.925781 371.410156 185.382812 371.597656 C 185.839844 371.789062 186.246094 372.058594 186.597656 372.410156 C 186.949219 372.761719 187.21875 373.167969 187.410156 373.625 C 187.597656 374.085938 187.695312 374.5625 187.695312 375.058594 L 187.695312 382.546875 C 187.695312 383.15625 187.726562 383.769531 187.785156 384.378906 C 187.847656 384.988281 187.9375 385.59375 188.058594 386.195312 C 188.175781 386.796875 188.328125 387.390625 188.503906 387.976562 C 188.683594 388.5625 188.890625 389.136719 189.125 389.703125 C 189.359375 390.269531 189.621094 390.824219 189.910156 391.363281 C 190.199219 391.90625 190.515625 392.429688 190.855469 392.9375 C 191.195312 393.449219 191.558594 393.941406 191.949219 394.414062 C 192.339844 394.886719 192.75 395.339844 193.183594 395.773438 C 193.617188 396.207031 194.070312 396.617188 194.542969 397.007812 C 195.015625 397.394531 195.507812 397.761719 196.019531 398.101562 C 196.527344 398.441406 197.050781 398.757812 197.59375 399.046875 C 198.132812 399.335938 198.6875 399.597656 199.25 399.832031 C 199.816406 400.066406 200.394531 400.273438 200.980469 400.453125 C 201.566406 400.628906 202.160156 400.78125 202.761719 400.898438 C 203.363281 401.019531 203.96875 401.109375 204.578125 401.171875 C 205.1875 401.230469 205.796875 401.261719 206.410156 401.261719 L 393.589844 401.261719 C 394.203125 401.261719 394.8125 401.230469 395.421875 401.171875 C 396.03125 401.109375 396.636719 401.019531 397.238281 400.898438 C 397.839844 400.78125 398.433594 400.628906 399.019531 400.453125 C 399.605469 400.273438 400.183594 400.066406 400.75 399.832031 C 401.3125 399.597656 401.867188 399.335938 402.40625 399.046875 C 402.949219 398.757812 403.472656 398.441406 403.980469 398.101562 C 404.492188 397.761719 404.984375 397.394531 405.457031 397.007812 C 405.929688 396.617188 406.382812 396.207031 406.816406 395.773438 C 407.25 395.339844 407.660156 394.886719 408.050781 394.414062 C 408.441406 393.941406 408.804688 393.449219 409.144531 392.9375 C 409.484375 392.429688 409.800781 391.90625 410.089844 391.363281 C 410.378906 390.824219 410.640625 390.269531 410.875 389.703125 C 411.109375 389.136719 411.316406 388.5625 411.496094 387.976562 C 411.671875 387.390625 411.824219 386.796875 411.941406 386.195312 C 412.0625 385.59375 412.152344 384.988281 412.214844 384.378906 C 412.273438 383.769531 412.304688 383.15625 412.304688 382.546875 L 412.304688 311.417969 C 412.304688 310.921875 412.402344 310.445312 412.589844 309.984375 C 412.78125 309.527344 413.050781 309.121094 413.402344 308.769531 C 413.753906 308.417969 414.160156 308.148438 414.617188 307.960938 C 415.074219 307.769531 415.554688 307.675781 416.050781 307.675781 C 416.546875 307.675781 417.023438 307.769531 417.484375 307.960938 C 417.941406 308.148438 418.347656 308.417969 418.695312 308.769531 C 419.046875 309.121094 419.320312 309.527344 419.507812 309.984375 C 419.699219 310.445312 419.792969 310.921875 419.792969 311.417969 L 419.792969 382.546875 C 419.792969 383.402344 419.75 384.257812 419.664062 385.113281 C 419.578125 385.964844 419.453125 386.8125 419.285156 387.65625 C 419.117188 388.496094 418.90625 389.328125 418.65625 390.148438 C 418.40625 390.96875 418.117188 391.777344 417.789062 392.566406 C 417.460938 393.359375 417.09375 394.136719 416.6875 394.890625 C 416.285156 395.648438 415.84375 396.382812 415.367188 397.097656 C 414.890625 397.808594 414.378906 398.496094 413.835938 399.160156 C 413.289062 399.824219 412.714844 400.457031 412.109375 401.066406 C 411.5 401.671875 410.867188 402.246094 410.203125 402.792969 C 409.539062 403.335938 408.851562 403.847656 408.140625 404.324219 C 407.425781 404.800781 406.691406 405.242188 405.933594 405.644531 C 405.179688 406.050781 404.402344 406.417969 403.613281 406.746094 C 402.820312 407.074219 402.011719 407.363281 401.191406 407.613281 C 400.371094 407.863281 399.539062 408.074219 398.699219 408.242188 C 397.855469 408.410156 397.011719 408.535156 396.15625 408.621094 C 395.300781 408.707031 394.445312 408.75 393.589844 408.75 Z M 393.589844 408.75 " fill-opacity="1" fill-rule="nonzero"/></g><path fill="#323232" d="M 183.949219 367.570312 C 183.453125 367.570312 182.976562 367.476562 182.515625 367.285156 C 182.058594 367.097656 181.652344 366.824219 181.304688 366.472656 C 180.953125 366.125 180.679688 365.71875 180.492188 365.261719 C 180.300781 364.800781 180.207031 364.324219 180.207031 363.828125 L 180.207031 292.699219 C 180.207031 291.84375 180.25 290.984375 180.335938 290.132812 C 180.421875 289.277344 180.546875 288.429688 180.714844 287.589844 C 180.882812 286.75 181.09375 285.917969 181.339844 285.097656 C 181.589844 284.277344 181.878906 283.46875 182.210938 282.675781 C 182.539062 281.882812 182.90625 281.109375 183.308594 280.351562 C 183.714844 279.597656 184.15625 278.863281 184.632812 278.148438 C 185.109375 277.433594 185.621094 276.746094 186.164062 276.082031 C 186.707031 275.421875 187.285156 274.785156 187.890625 274.179688 C 188.496094 273.574219 189.132812 272.996094 189.796875 272.453125 C 190.457031 271.910156 191.148438 271.398438 191.859375 270.921875 C 192.574219 270.445312 193.308594 270.003906 194.0625 269.597656 C 194.820312 269.195312 195.59375 268.828125 196.386719 268.496094 C 197.179688 268.167969 197.988281 267.878906 198.808594 267.628906 C 199.628906 267.378906 200.460938 267.171875 201.300781 267.003906 C 202.140625 266.835938 202.988281 266.710938 203.84375 266.625 C 204.699219 266.539062 205.554688 266.496094 206.410156 266.496094 L 249.019531 266.496094 L 259.214844 246.105469 C 259.53125 245.46875 259.992188 244.964844 260.59375 244.59375 C 261.199219 244.21875 261.855469 244.035156 262.566406 244.035156 L 337.433594 244.035156 C 338.148438 244.03125 338.808594 244.214844 339.414062 244.589844 C 340.023438 244.960938 340.484375 245.464844 340.804688 246.105469 L 350.980469 266.496094 L 393.589844 266.496094 C 394.445312 266.496094 395.300781 266.539062 396.15625 266.625 C 397.011719 266.710938 397.859375 266.835938 398.699219 267.003906 C 399.539062 267.171875 400.371094 267.378906 401.191406 267.628906 C 402.011719 267.878906 402.820312 268.167969 403.613281 268.496094 C 404.40625 268.828125 405.179688 269.195312 405.9375 269.597656 C 406.691406 270.003906 407.425781 270.445312 408.140625 270.921875 C 408.851562 271.398438 409.542969 271.910156 410.203125 272.453125 C 410.867188 272.996094 411.503906 273.574219 412.109375 274.179688 C 412.714844 274.785156 413.292969 275.421875 413.835938 276.082031 C 414.378906 276.746094 414.890625 277.433594 415.367188 278.148438 C 415.84375 278.863281 416.285156 279.597656 416.691406 280.351562 C 417.09375 281.109375 417.460938 281.882812 417.789062 282.675781 C 418.121094 283.46875 418.410156 284.277344 418.660156 285.097656 C 418.90625 285.917969 419.117188 286.75 419.285156 287.589844 C 419.453125 288.429688 419.578125 289.277344 419.664062 290.132812 C 419.75 290.984375 419.792969 291.84375 419.792969 292.699219 L 419.792969 300.1875 C 419.792969 300.683594 419.699219 301.160156 419.507812 301.621094 C 419.320312 302.078125 419.046875 302.484375 418.695312 302.835938 C 418.347656 303.183594 417.941406 303.457031 417.484375 303.644531 C 417.023438 303.835938 416.546875 303.929688 416.050781 303.929688 C 415.554688 303.929688 415.074219 303.835938 414.617188 303.644531 C 414.160156 303.457031 413.753906 303.183594 413.402344 302.835938 C 413.050781 302.484375 412.78125 302.078125 412.589844 301.621094 C 412.402344 301.160156 412.304688 300.683594 412.304688 300.1875 L 412.304688 292.699219 C 412.304688 292.085938 412.273438 291.476562 412.214844 290.867188 C 412.152344 290.257812 412.0625 289.652344 411.941406 289.050781 C 411.824219 288.449219 411.671875 287.855469 411.496094 287.269531 C 411.316406 286.683594 411.109375 286.105469 410.875 285.539062 C 410.640625 284.972656 410.378906 284.421875 410.089844 283.882812 C 409.800781 283.339844 409.484375 282.816406 409.144531 282.304688 C 408.804688 281.796875 408.441406 281.304688 408.050781 280.832031 C 407.660156 280.359375 407.25 279.90625 406.816406 279.472656 C 406.382812 279.039062 405.929688 278.625 405.457031 278.238281 C 404.984375 277.847656 404.492188 277.484375 403.980469 277.144531 C 403.472656 276.804688 402.949219 276.488281 402.40625 276.199219 C 401.867188 275.910156 401.3125 275.648438 400.75 275.414062 C 400.183594 275.179688 399.605469 274.972656 399.019531 274.792969 C 398.433594 274.613281 397.839844 274.464844 397.238281 274.347656 C 396.636719 274.226562 396.03125 274.136719 395.421875 274.074219 C 394.8125 274.015625 394.203125 273.984375 393.589844 273.980469 L 348.667969 273.980469 C 347.953125 273.984375 347.292969 273.800781 346.6875 273.429688 C 346.078125 273.054688 345.617188 272.550781 345.296875 271.914062 L 335.121094 251.519531 L 264.878906 251.519531 L 254.703125 271.914062 C 254.382812 272.550781 253.921875 273.054688 253.3125 273.429688 C 252.707031 273.800781 252.046875 273.984375 251.332031 273.980469 L 206.410156 273.980469 C 205.796875 273.984375 205.1875 274.015625 204.578125 274.074219 C 203.96875 274.136719 203.363281 274.226562 202.761719 274.347656 C 202.160156 274.464844 201.566406 274.613281 200.980469 274.792969 C 200.394531 274.972656 199.816406 275.179688 199.25 275.414062 C 198.6875 275.648438 198.132812 275.910156 197.59375 276.199219 C 197.050781 276.488281 196.527344 276.804688 196.019531 277.144531 C 195.507812 277.484375 195.015625 277.847656 194.542969 278.238281 C 194.070312 278.625 193.617188 279.039062 193.183594 279.472656 C 192.75 279.90625 192.339844 280.359375 191.949219 280.832031 C 191.558594 281.304688 191.195312 281.796875 190.855469 282.304688 C 190.515625 282.816406 190.199219 283.339844 189.910156 283.882812 C 189.621094 284.421875 189.359375 284.972656 189.125 285.539062 C 188.890625 286.105469 188.683594 286.683594 188.503906 287.269531 C 188.328125 287.855469 188.175781 288.449219 188.058594 289.050781 C 187.9375 289.652344 187.847656 290.257812 187.785156 290.867188 C 187.726562 291.476562 187.695312 292.085938 187.695312 292.699219 L 187.695312 363.828125 C 187.695312 364.324219 187.597656 364.800781 187.410156 365.261719 C 187.21875 365.71875 186.949219 366.125 186.597656 366.472656 C 186.246094 366.824219 185.839844 367.097656 185.382812 367.285156 C 184.925781 367.476562 184.445312 367.570312 183.949219 367.570312 Z M 183.949219 367.570312 " fill-opacity="1" fill-rule="nonzero"/><path fill="#323232" d="M 300 397.519531 C 298.039062 397.519531 296.082031 397.421875 294.128906 397.230469 C 292.175781 397.039062 290.238281 396.75 288.316406 396.367188 C 286.390625 395.984375 284.488281 395.507812 282.613281 394.941406 C 280.734375 394.371094 278.890625 393.710938 277.078125 392.960938 C 275.265625 392.210938 273.496094 391.371094 271.765625 390.445312 C 270.035156 389.523438 268.355469 388.515625 266.722656 387.425781 C 265.09375 386.335938 263.519531 385.167969 262 383.921875 C 260.484375 382.679688 259.035156 381.363281 257.648438 379.976562 C 256.257812 378.589844 254.945312 377.136719 253.699219 375.621094 C 252.453125 374.105469 251.289062 372.53125 250.199219 370.898438 C 249.109375 369.269531 248.101562 367.585938 247.175781 365.859375 C 246.25 364.128906 245.414062 362.355469 244.664062 360.542969 C 243.910156 358.730469 243.25 356.886719 242.683594 355.007812 C 242.113281 353.132812 241.636719 351.230469 241.253906 349.308594 C 240.871094 347.382812 240.582031 345.445312 240.390625 343.492188 C 240.199219 341.542969 240.101562 339.585938 240.101562 337.621094 C 240.101562 335.660156 240.199219 333.703125 240.390625 331.75 C 240.582031 329.800781 240.871094 327.863281 241.253906 325.9375 C 241.636719 324.011719 242.113281 322.113281 242.683594 320.234375 C 243.25 318.359375 243.910156 316.511719 244.664062 314.699219 C 245.414062 312.890625 246.25 311.117188 247.175781 309.386719 C 248.101562 307.65625 249.109375 305.976562 250.199219 304.347656 C 251.289062 302.714844 252.453125 301.140625 253.699219 299.625 C 254.945312 298.109375 256.257812 296.65625 257.648438 295.269531 C 259.035156 293.882812 260.484375 292.566406 262 291.320312 C 263.519531 290.078125 265.09375 288.910156 266.722656 287.820312 C 268.355469 286.730469 270.035156 285.722656 271.765625 284.796875 C 273.496094 283.875 275.265625 283.035156 277.078125 282.285156 C 278.890625 281.535156 280.734375 280.875 282.613281 280.304688 C 284.488281 279.734375 286.390625 279.257812 288.316406 278.875 C 290.238281 278.492188 292.175781 278.207031 294.128906 278.015625 C 296.082031 277.820312 298.039062 277.726562 300 277.726562 C 301.960938 277.726562 303.917969 277.820312 305.871094 278.015625 C 307.824219 278.207031 309.761719 278.492188 311.683594 278.875 C 313.609375 279.257812 315.511719 279.734375 317.386719 280.304688 C 319.265625 280.875 321.109375 281.535156 322.921875 282.285156 C 324.734375 283.035156 326.503906 283.875 328.234375 284.796875 C 329.964844 285.722656 331.644531 286.730469 333.277344 287.820312 C 334.90625 288.910156 336.480469 290.078125 338 291.320312 C 339.515625 292.566406 340.964844 293.882812 342.351562 295.269531 C 343.742188 296.65625 345.054688 298.109375 346.300781 299.625 C 347.546875 301.140625 348.710938 302.714844 349.800781 304.347656 C 350.890625 305.976562 351.898438 307.65625 352.824219 309.386719 C 353.75 311.117188 354.585938 312.890625 355.335938 314.699219 C 356.089844 316.511719 356.75 318.359375 357.316406 320.234375 C 357.886719 322.113281 358.363281 324.011719 358.746094 325.9375 C 359.128906 327.863281 359.414062 329.800781 359.609375 331.75 C 359.800781 333.703125 359.898438 335.660156 359.898438 337.621094 C 359.894531 339.582031 359.796875 341.539062 359.601562 343.492188 C 359.40625 345.441406 359.117188 347.378906 358.734375 349.304688 C 358.351562 351.226562 357.871094 353.125 357.300781 355 C 356.730469 356.878906 356.070312 358.722656 355.320312 360.53125 C 354.566406 362.34375 353.726562 364.113281 352.804688 365.84375 C 351.878906 367.574219 350.871094 369.253906 349.78125 370.882812 C 348.691406 372.511719 347.523438 374.085938 346.277344 375.601562 C 345.035156 377.117188 343.71875 378.570312 342.332031 379.957031 C 340.945312 381.34375 339.496094 382.65625 337.980469 383.902344 C 336.464844 385.144531 334.890625 386.3125 333.261719 387.402344 C 331.628906 388.492188 329.949219 389.5 328.222656 390.425781 C 326.492188 391.351562 324.722656 392.191406 322.910156 392.941406 C 321.097656 393.691406 319.253906 394.355469 317.378906 394.925781 C 315.503906 395.496094 313.601562 395.972656 311.679688 396.355469 C 309.757812 396.742188 307.820312 397.03125 305.867188 397.222656 C 303.917969 397.417969 301.960938 397.515625 300 397.519531 Z M 300 285.214844 C 298.285156 285.214844 296.570312 285.296875 294.863281 285.464844 C 293.15625 285.632812 291.457031 285.886719 289.773438 286.21875 C 288.09375 286.554688 286.429688 286.972656 284.785156 287.46875 C 283.144531 287.96875 281.53125 288.546875 279.945312 289.203125 C 278.359375 289.859375 276.808594 290.59375 275.292969 291.402344 C 273.78125 292.210938 272.308594 293.09375 270.882812 294.046875 C 269.457031 295 268.078125 296.019531 266.75 297.109375 C 265.425781 298.199219 264.15625 299.351562 262.941406 300.5625 C 261.726562 301.777344 260.574219 303.046875 259.488281 304.375 C 258.398438 305.699219 257.375 307.078125 256.421875 308.503906 C 255.46875 309.933594 254.589844 311.402344 253.777344 312.917969 C 252.96875 314.429688 252.238281 315.980469 251.578125 317.566406 C 250.921875 319.152344 250.34375 320.765625 249.847656 322.410156 C 249.347656 324.050781 248.933594 325.714844 248.597656 327.398438 C 248.261719 329.082031 248.011719 330.777344 247.84375 332.484375 C 247.675781 334.195312 247.589844 335.90625 247.589844 337.621094 C 247.589844 339.339844 247.675781 341.050781 247.84375 342.757812 C 248.011719 344.46875 248.261719 346.164062 248.597656 347.847656 C 248.933594 349.53125 249.347656 351.195312 249.847656 352.835938 C 250.34375 354.480469 250.921875 356.09375 251.578125 357.679688 C 252.238281 359.265625 252.96875 360.816406 253.777344 362.328125 C 254.589844 363.84375 255.46875 365.3125 256.421875 366.738281 C 257.375 368.167969 258.398438 369.542969 259.488281 370.871094 C 260.574219 372.199219 261.726562 373.46875 262.941406 374.683594 C 264.15625 375.894531 265.425781 377.046875 266.75 378.136719 C 268.078125 379.226562 269.457031 380.246094 270.882812 381.199219 C 272.308594 382.152344 273.78125 383.035156 275.292969 383.84375 C 276.808594 384.652344 278.359375 385.386719 279.945312 386.042969 C 281.53125 386.699219 283.144531 387.277344 284.785156 387.777344 C 286.429688 388.273438 288.09375 388.691406 289.773438 389.023438 C 291.457031 389.359375 293.15625 389.613281 294.863281 389.78125 C 296.570312 389.949219 298.285156 390.03125 300 390.03125 C 301.714844 390.03125 303.429688 389.949219 305.136719 389.78125 C 306.84375 389.613281 308.542969 389.359375 310.222656 389.023438 C 311.90625 388.691406 313.570312 388.273438 315.214844 387.777344 C 316.855469 387.277344 318.46875 386.699219 320.054688 386.042969 C 321.640625 385.386719 323.191406 384.652344 324.707031 383.84375 C 326.21875 383.035156 327.691406 382.152344 329.117188 381.199219 C 330.542969 380.246094 331.921875 379.226562 333.25 378.136719 C 334.574219 377.046875 335.84375 375.894531 337.058594 374.683594 C 338.273438 373.46875 339.425781 372.199219 340.511719 370.871094 C 341.601562 369.542969 342.625 368.167969 343.578125 366.738281 C 344.53125 365.3125 345.410156 363.84375 346.222656 362.328125 C 347.03125 360.816406 347.761719 359.265625 348.421875 357.679688 C 349.078125 356.09375 349.65625 354.480469 350.152344 352.835938 C 350.652344 351.195312 351.066406 349.53125 351.402344 347.847656 C 351.738281 346.164062 351.988281 344.46875 352.15625 342.757812 C 352.324219 341.050781 352.410156 339.339844 352.410156 337.621094 C 352.40625 335.90625 352.320312 334.195312 352.152344 332.488281 C 351.980469 330.78125 351.730469 329.085938 351.394531 327.402344 C 351.058594 325.71875 350.640625 324.058594 350.140625 322.414062 C 349.640625 320.773438 349.0625 319.160156 348.40625 317.574219 C 347.746094 315.988281 347.015625 314.441406 346.203125 312.929688 C 345.394531 311.414062 344.511719 309.945312 343.558594 308.519531 C 342.605469 307.09375 341.585938 305.714844 340.496094 304.390625 C 339.40625 303.0625 338.257812 301.792969 337.042969 300.578125 C 335.828125 299.367188 334.558594 298.214844 333.234375 297.125 C 331.90625 296.039062 330.53125 295.015625 329.105469 294.0625 C 327.675781 293.109375 326.207031 292.226562 324.695312 291.417969 C 323.179688 290.609375 321.632812 289.875 320.046875 289.21875 C 318.460938 288.558594 316.847656 287.980469 315.207031 287.480469 C 313.566406 286.984375 311.902344 286.566406 310.222656 286.230469 C 308.539062 285.894531 306.84375 285.640625 305.136719 285.46875 C 303.425781 285.300781 301.714844 285.214844 300 285.214844 Z M 300 285.214844 " fill-opacity="1" fill-rule="nonzero"/><path fill="#323232" d="M 258.820312 341.367188 C 258.324219 341.367188 257.847656 341.269531 257.386719 341.082031 C 256.929688 340.890625 256.523438 340.621094 256.175781 340.269531 C 255.824219 339.917969 255.550781 339.515625 255.363281 339.054688 C 255.171875 338.597656 255.078125 338.117188 255.078125 337.621094 C 255.078125 336.152344 255.152344 334.683594 255.296875 333.222656 C 255.445312 331.757812 255.660156 330.304688 255.949219 328.863281 C 256.238281 327.417969 256.59375 325.996094 257.023438 324.585938 C 257.449219 323.179688 257.945312 321.796875 258.511719 320.4375 C 259.074219 319.082031 259.703125 317.753906 260.394531 316.457031 C 261.089844 315.160156 261.84375 313.898438 262.664062 312.675781 C 263.480469 311.453125 264.355469 310.273438 265.289062 309.136719 C 266.222656 308 267.210938 306.910156 268.25 305.871094 C 269.289062 304.832031 270.378906 303.84375 271.515625 302.910156 C 272.652344 301.980469 273.832031 301.101562 275.054688 300.285156 C 276.277344 299.46875 277.535156 298.710938 278.832031 298.019531 C 280.128906 297.324219 281.457031 296.695312 282.816406 296.132812 C 284.175781 295.570312 285.558594 295.074219 286.964844 294.644531 C 288.371094 294.21875 289.796875 293.859375 291.238281 293.570312 C 292.683594 293.28125 294.132812 293.066406 295.597656 292.921875 C 297.0625 292.773438 298.527344 292.703125 300 292.699219 C 300.496094 292.699219 300.972656 292.796875 301.433594 292.984375 C 301.890625 293.175781 302.296875 293.445312 302.648438 293.796875 C 303 294.148438 303.269531 294.550781 303.457031 295.011719 C 303.648438 295.46875 303.742188 295.945312 303.742188 296.445312 C 303.742188 296.941406 303.648438 297.417969 303.457031 297.875 C 303.269531 298.335938 303 298.738281 302.648438 299.089844 C 302.296875 299.441406 301.890625 299.710938 301.433594 299.902344 C 300.972656 300.09375 300.496094 300.1875 300 300.1875 C 298.773438 300.1875 297.550781 300.25 296.332031 300.371094 C 295.113281 300.492188 293.902344 300.671875 292.699219 300.914062 C 291.496094 301.152344 290.308594 301.453125 289.136719 301.808594 C 287.964844 302.164062 286.8125 302.578125 285.679688 303.046875 C 284.546875 303.515625 283.441406 304.042969 282.359375 304.621094 C 281.28125 305.199219 280.230469 305.828125 279.210938 306.507812 C 278.191406 307.191406 277.210938 307.917969 276.261719 308.695312 C 275.316406 309.476562 274.40625 310.296875 273.542969 311.164062 C 272.675781 312.03125 271.851562 312.9375 271.074219 313.886719 C 270.296875 314.832031 269.566406 315.816406 268.886719 316.835938 C 268.203125 317.851562 267.574219 318.902344 266.996094 319.984375 C 266.417969 321.066406 265.894531 322.171875 265.425781 323.304688 C 264.957031 324.433594 264.542969 325.585938 264.1875 326.761719 C 263.828125 327.933594 263.53125 329.121094 263.289062 330.320312 C 263.050781 331.523438 262.871094 332.734375 262.75 333.953125 C 262.628906 335.175781 262.566406 336.398438 262.566406 337.621094 C 262.566406 338.117188 262.46875 338.597656 262.28125 339.054688 C 262.089844 339.515625 261.820312 339.917969 261.46875 340.269531 C 261.117188 340.621094 260.710938 340.890625 260.253906 341.082031 C 259.796875 341.269531 259.316406 341.367188 258.820312 341.367188 Z M 258.820312 341.367188 " fill-opacity="1" fill-rule="nonzero"/><path fill="#323232" d="M 300 382.546875 C 299.503906 382.546875 299.027344 382.449219 298.566406 382.261719 C 298.109375 382.070312 297.703125 381.800781 297.351562 381.449219 C 297 381.097656 296.730469 380.691406 296.542969 380.234375 C 296.351562 379.777344 296.257812 379.296875 296.257812 378.800781 C 296.257812 378.304688 296.351562 377.828125 296.542969 377.367188 C 296.730469 376.910156 297 376.503906 297.351562 376.15625 C 297.703125 375.804688 298.109375 375.53125 298.566406 375.34375 C 299.027344 375.152344 299.503906 375.058594 300 375.058594 C 301.226562 375.058594 302.449219 374.996094 303.667969 374.875 C 304.886719 374.753906 306.097656 374.570312 307.300781 374.332031 C 308.503906 374.09375 309.691406 373.792969 310.863281 373.4375 C 312.035156 373.082031 313.1875 372.667969 314.320312 372.199219 C 315.453125 371.726562 316.558594 371.203125 317.640625 370.625 C 318.71875 370.046875 319.769531 369.417969 320.789062 368.738281 C 321.808594 368.054688 322.789062 367.324219 323.738281 366.546875 C 324.683594 365.769531 325.59375 364.949219 326.457031 364.082031 C 327.324219 363.214844 328.148438 362.308594 328.925781 361.359375 C 329.703125 360.414062 330.433594 359.429688 331.113281 358.410156 C 331.796875 357.390625 332.425781 356.34375 333.003906 355.261719 C 333.582031 354.179688 334.105469 353.074219 334.574219 351.941406 C 335.042969 350.808594 335.457031 349.65625 335.8125 348.484375 C 336.171875 347.3125 336.46875 346.125 336.710938 344.921875 C 336.949219 343.722656 337.128906 342.511719 337.25 341.289062 C 337.371094 340.070312 337.433594 338.847656 337.433594 337.621094 C 337.433594 337.125 337.53125 336.648438 337.71875 336.191406 C 337.910156 335.730469 338.179688 335.328125 338.53125 334.976562 C 338.882812 334.625 339.289062 334.355469 339.746094 334.164062 C 340.203125 333.972656 340.683594 333.878906 341.179688 333.878906 C 341.675781 333.878906 342.152344 333.972656 342.613281 334.164062 C 343.070312 334.355469 343.476562 334.625 343.824219 334.976562 C 344.175781 335.328125 344.449219 335.730469 344.636719 336.191406 C 344.828125 336.648438 344.921875 337.125 344.921875 337.621094 C 344.921875 339.09375 344.847656 340.5625 344.703125 342.023438 C 344.554688 343.488281 344.339844 344.941406 344.050781 346.382812 C 343.761719 347.824219 343.40625 349.25 342.976562 350.65625 C 342.550781 352.066406 342.054688 353.449219 341.488281 354.804688 C 340.925781 356.164062 340.296875 357.492188 339.605469 358.789062 C 338.910156 360.085938 338.152344 361.347656 337.335938 362.570312 C 336.519531 363.792969 335.644531 364.972656 334.710938 366.109375 C 333.777344 367.246094 332.789062 368.332031 331.75 369.375 C 330.710938 370.414062 329.621094 371.398438 328.484375 372.332031 C 327.347656 373.265625 326.167969 374.140625 324.945312 374.960938 C 323.722656 375.777344 322.464844 376.53125 321.167969 377.226562 C 319.871094 377.921875 318.542969 378.550781 317.183594 379.113281 C 315.824219 379.675781 314.441406 380.171875 313.035156 380.601562 C 311.628906 381.027344 310.203125 381.386719 308.761719 381.675781 C 307.316406 381.960938 305.867188 382.179688 304.402344 382.324219 C 302.9375 382.46875 301.472656 382.542969 300 382.546875 Z M 300 382.546875 " fill-opacity="1" fill-rule="nonzero"/><path fill="#323232" d="M 386.101562 262.75 L 363.640625 262.75 C 363.144531 262.75 362.667969 262.65625 362.207031 262.464844 C 361.75 262.277344 361.34375 262.007812 360.992188 261.65625 C 360.640625 261.304688 360.371094 260.898438 360.183594 260.441406 C 359.992188 259.980469 359.898438 259.503906 359.898438 259.007812 C 359.898438 258.511719 359.992188 258.035156 360.183594 257.574219 C 360.371094 257.117188 360.640625 256.710938 360.992188 256.359375 C 361.34375 256.011719 361.75 255.738281 362.207031 255.550781 C 362.667969 255.359375 363.144531 255.265625 363.640625 255.265625 L 386.101562 255.265625 C 386.597656 255.265625 387.074219 255.359375 387.535156 255.550781 C 387.992188 255.738281 388.398438 256.011719 388.75 256.359375 C 389.097656 256.710938 389.371094 257.117188 389.558594 257.574219 C 389.75 258.035156 389.84375 258.511719 389.84375 259.007812 C 389.84375 259.503906 389.75 259.980469 389.558594 260.441406 C 389.371094 260.898438 389.097656 261.304688 388.75 261.65625 C 388.398438 262.007812 387.992188 262.277344 387.535156 262.464844 C 387.074219 262.65625 386.597656 262.75 386.101562 262.75 Z M 386.101562 262.75 " fill-opacity="1" fill-rule="nonzero"/><path fill="#323232" d="M 390.777344 247.777344 C 390.558594 247.777344 390.351562 247.777344 390.140625 247.75 C 389.410156 247.695312 388.753906 247.445312 388.171875 247.003906 C 383.230469 243.292969 379.375 231.847656 381.175781 226.25 C 381.605469 224.820312 382.296875 223.53125 383.25 222.386719 C 384.207031 221.238281 385.347656 220.324219 386.675781 219.644531 C 387.667969 219.15625 388.71875 218.882812 389.824219 218.828125 C 390.929688 218.773438 392 218.941406 393.039062 219.332031 C 394.792969 220.027344 396.28125 221.09375 397.503906 222.535156 C 399.339844 222.25 401.128906 222.429688 402.871094 223.074219 C 403.449219 223.347656 404 223.675781 404.515625 224.054688 C 405.03125 224.433594 405.507812 224.855469 405.945312 225.324219 C 406.382812 225.792969 406.769531 226.296875 407.113281 226.839844 C 407.453125 227.378906 407.742188 227.949219 407.972656 228.546875 C 408.207031 229.140625 408.382812 229.753906 408.5 230.382812 C 408.621094 231.011719 408.675781 231.648438 408.675781 232.289062 C 408.671875 232.929688 408.609375 233.5625 408.488281 234.191406 C 408.367188 234.820312 408.1875 235.433594 407.949219 236.027344 C 406.183594 241.558594 396.957031 247.777344 390.777344 247.777344 Z M 390.25 226.308594 C 390.132812 226.316406 390.019531 226.347656 389.917969 226.402344 C 389.089844 226.902344 388.550781 227.621094 388.300781 228.554688 C 388.253906 230.632812 388.535156 232.664062 389.140625 234.652344 C 389.746094 236.640625 390.644531 238.484375 391.835938 240.1875 C 393.667969 239.667969 395.355469 238.855469 396.902344 237.75 C 398.445312 236.640625 399.761719 235.304688 400.839844 233.738281 C 401.402344 232 400.839844 230.316406 400.230469 230.078125 C 399.320312 229.820312 398.433594 229.875 397.558594 230.234375 C 397.109375 230.441406 396.636719 230.558594 396.140625 230.578125 C 395.644531 230.597656 395.160156 230.527344 394.695312 230.359375 C 394.226562 230.191406 393.808594 229.941406 393.441406 229.605469 C 393.070312 229.273438 392.777344 228.886719 392.5625 228.4375 C 392.070312 227.5 391.347656 226.796875 390.394531 226.335938 C 390.347656 226.316406 390.300781 226.308594 390.25 226.308594 Z M 390.25 226.308594 " fill-opacity="1" fill-rule="nonzero"/><path fill="#323232" d="M 228.871094 296.445312 L 206.410156 296.445312 C 205.914062 296.445312 205.4375 296.347656 204.980469 296.160156 C 204.519531 295.96875 204.117188 295.699219 203.765625 295.347656 C 203.414062 294.996094 203.144531 294.589844 202.953125 294.132812 C 202.761719 293.675781 202.667969 293.195312 202.667969 292.699219 C 202.667969 292.203125 202.761719 291.726562 202.953125 291.265625 C 203.144531 290.808594 203.414062 290.402344 203.765625 290.054688 C 204.117188 289.703125 204.519531 289.429688 204.980469 289.242188 C 205.4375 289.050781 205.914062 288.957031 206.410156 288.957031 L 228.871094 288.957031 C 229.367188 288.957031 229.847656 289.050781 230.304688 289.242188 C 230.765625 289.429688 231.167969 289.703125 231.519531 290.054688 C 231.871094 290.402344 232.140625 290.808594 232.332031 291.265625 C 232.519531 291.726562 232.617188 292.203125 232.617188 292.699219 C 232.617188 293.195312 232.519531 293.675781 232.332031 294.132812 C 232.140625 294.589844 231.871094 294.996094 231.519531 295.347656 C 231.167969 295.699219 230.765625 295.96875 230.304688 296.160156 C 229.847656 296.347656 229.367188 296.445312 228.871094 296.445312 Z M 228.871094 296.445312 " fill-opacity="1" fill-rule="nonzero"/><g clip-path="url(#2098c1763c)"><path fill="#323232" d="M 357.503906 244.035156 C 350.136719 244.035156 342.015625 238.207031 338.847656 235.6875 C 338.457031 235.375 338.144531 235.003906 337.902344 234.570312 C 337.664062 234.136719 337.515625 233.671875 337.457031 233.179688 C 337.402344 232.683594 337.441406 232.199219 337.582031 231.722656 C 337.71875 231.246094 337.941406 230.8125 338.25 230.425781 C 338.558594 230.035156 338.929688 229.722656 339.363281 229.480469 C 339.800781 229.242188 340.261719 229.09375 340.757812 229.035156 C 341.25 228.980469 341.734375 229.019531 342.210938 229.15625 C 342.691406 229.292969 343.121094 229.519531 343.511719 229.828125 C 347.28125 233.105469 351.597656 235.320312 356.460938 236.472656 C 362.859375 230.914062 368.730469 213.636719 367.128906 207.347656 C 366.785156 205.792969 366.160156 204.359375 365.253906 203.050781 C 364.347656 201.742188 363.222656 200.65625 361.886719 199.789062 C 361.347656 199.453125 360.761719 199.246094 360.132812 199.160156 C 359.503906 199.078125 358.882812 199.125 358.277344 199.304688 C 356.855469 199.917969 355.582031 200.753906 354.453125 201.816406 C 353.324219 202.875 352.414062 204.09375 351.714844 205.476562 C 351.597656 205.714844 351.457031 205.9375 351.296875 206.148438 C 351.132812 206.355469 350.949219 206.546875 350.746094 206.71875 C 350.542969 206.886719 350.324219 207.035156 350.089844 207.15625 C 349.855469 207.28125 349.609375 207.378906 349.355469 207.453125 C 349.097656 207.523438 348.839844 207.566406 348.574219 207.582031 C 348.308594 207.601562 348.046875 207.589844 347.785156 207.546875 C 347.519531 207.507812 347.265625 207.441406 347.019531 207.347656 C 346.769531 207.253906 346.535156 207.136719 346.3125 206.992188 C 345.089844 206.265625 343.773438 205.792969 342.367188 205.578125 C 340.964844 205.363281 339.566406 205.417969 338.183594 205.746094 C 334.679688 206.867188 332.757812 212.890625 334.15625 218.378906 C 334.695312 220.082031 335.535156 221.617188 336.675781 222.992188 C 336.976562 223.386719 337.1875 223.828125 337.3125 224.308594 C 337.4375 224.789062 337.46875 225.273438 337.398438 225.765625 C 337.332031 226.261719 337.171875 226.71875 336.917969 227.148438 C 336.667969 227.578125 336.34375 227.941406 335.949219 228.242188 C 335.550781 228.542969 335.113281 228.753906 334.632812 228.878906 C 334.148438 229.003906 333.664062 229.035156 333.171875 228.964844 C 332.679688 228.898438 332.21875 228.738281 331.789062 228.484375 C 331.359375 228.234375 330.996094 227.910156 330.695312 227.515625 C 328.945312 225.335938 327.675781 222.90625 326.894531 220.226562 C 324.769531 211.898438 327.609375 201.269531 335.878906 198.617188 C 337.691406 198.078125 339.542969 197.851562 341.429688 197.925781 C 343.320312 198.003906 345.148438 198.382812 346.910156 199.066406 C 348.03125 197.476562 349.367188 196.09375 350.917969 194.917969 C 352.464844 193.742188 354.15625 192.828125 355.988281 192.175781 C 357.578125 191.671875 359.203125 191.511719 360.863281 191.699219 C 362.519531 191.882812 364.070312 192.398438 365.507812 193.242188 C 366.617188 193.917969 367.648438 194.695312 368.601562 195.574219 C 369.554688 196.457031 370.410156 197.421875 371.167969 198.476562 C 371.929688 199.527344 372.578125 200.644531 373.113281 201.828125 C 373.648438 203.011719 374.0625 204.234375 374.355469 205.496094 C 376.976562 215.730469 368.617188 237.316406 359.714844 243.386719 C 359.09375 243.8125 358.40625 244.027344 357.65625 244.035156 Z M 357.503906 244.035156 " fill-opacity="1" fill-rule="nonzero"/></g></svg>